<svg width="16" height="16" viewBox="0 0 16 16" fill="none" xmlns="http://www.w3.org/2000/svg">
<g clip-path="url(#clip0_199_332)">
<path d="M0.666504 7.5835C0.666504 5.59437 1.45668 3.68672 2.8632 2.2802C4.26973 0.873673 6.17738 0.0834961 8.1665 0.0834961C10.1556 0.0834961 12.0633 0.873673 13.4698 2.2802C14.8763 3.68672 15.6665 5.59437 15.6665 7.5835C15.6665 9.57262 14.8763 11.4803 13.4698 12.8868C12.0633 14.2933 10.1556 15.0835 8.1665 15.0835C6.17738 15.0835 4.26973 14.2933 2.8632 12.8868C1.45668 11.4803 0.666504 9.57262 0.666504 7.5835ZM9.104 2.896C9.104 2.64736 9.00523 2.4089 8.82942 2.23308C8.6536 2.05727 8.41514 1.9585 8.1665 1.9585C7.91786 1.9585 7.67941 2.05727 7.50359 2.23308C7.32778 2.4089 7.229 2.64736 7.229 2.896C7.229 3.14464 7.32778 3.38309 7.50359 3.55891C7.67941 3.73472 7.91786 3.8335 8.1665 3.8335C8.41514 3.8335 8.6536 3.73472 8.82942 3.55891C9.00523 3.38309 9.104 3.14464 9.104 2.896ZM8.1665 12.271C9.20068 12.271 10.0415 11.4302 10.0415 10.396C10.0415 9.88623 9.83936 9.42627 9.51123 9.08936L11.3892 4.8208C11.5444 4.46631 11.3833 4.05029 11.0288 3.89502C10.6743 3.73975 10.2583 3.90088 10.103 4.25537L8.22217 8.521C8.20459 8.521 8.18408 8.521 8.1665 8.521C7.13232 8.521 6.2915 9.36182 6.2915 10.396C6.2915 11.4302 7.13232 12.271 8.1665 12.271ZM5.82275 4.30225C5.82275 4.05361 5.72398 3.81515 5.54817 3.63933C5.37235 3.46352 5.13389 3.36475 4.88525 3.36475C4.63661 3.36475 4.39816 3.46352 4.22234 3.63933C4.04653 3.81515 3.94775 4.05361 3.94775 4.30225C3.94775 4.55089 4.04653 4.78934 4.22234 4.96516C4.39816 5.14097 4.63661 5.23975 4.88525 5.23975C5.13389 5.23975 5.37235 5.14097 5.54817 4.96516C5.72398 4.78934 5.82275 4.55089 5.82275 4.30225ZM3.479 8.521C3.72764 8.521 3.9661 8.42222 4.14192 8.24641C4.31773 8.07059 4.4165 7.83214 4.4165 7.5835C4.4165 7.33486 4.31773 7.0964 4.14192 6.92058C3.9661 6.74477 3.72764 6.646 3.479 6.646C3.23036 6.646 2.99191 6.74477 2.81609 6.92058C2.64028 7.0964 2.5415 7.33486 2.5415 7.5835C2.5415 7.83214 2.64028 8.07059 2.81609 8.24641C2.99191 8.42222 3.23036 8.521 3.479 8.521ZM13.7915 7.5835C13.7915 7.33486 13.6927 7.0964 13.5169 6.92058C13.3411 6.74477 13.1026 6.646 12.854 6.646C12.6054 6.646 12.3669 6.74477 12.1911 6.92058C12.0153 7.0964 11.9165 7.33486 11.9165 7.5835C11.9165 7.83214 12.0153 8.07059 12.1911 8.24641C12.3669 8.42222 12.6054 8.521 12.854 8.521C13.1026 8.521 13.3411 8.42222 13.5169 8.24641C13.6927 8.07059 13.7915 7.83214 13.7915 7.5835Z" fill="#014EC1"/>
</g>
<defs>
<clipPath id="clip0_199_332">
<rect width="15" height="15" fill="white" transform="translate(0.666504 0.0834961)"/>
</clipPath>
</defs>
</svg>
