<svg width="17" height="16" viewBox="0 0 17 16" fill="none" xmlns="http://www.w3.org/2000/svg">
<path d="M2.8125 0.0834961C1.77832 0.0834961 0.9375 0.924316 0.9375 1.9585V13.2085C0.418945 13.2085 0 13.6274 0 14.146C0 14.6646 0.418945 15.0835 0.9375 15.0835H9.375C9.89355 15.0835 10.3125 14.6646 10.3125 14.146C10.3125 13.6274 9.89355 13.2085 9.375 13.2085V8.98975H9.84375C10.4912 8.98975 11.0156 9.51416 11.0156 10.1616V11.0991C11.0156 12.2651 11.959 13.2085 13.125 13.2085C14.291 13.2085 15.2344 12.2651 15.2344 11.0991V7.4751C16.1865 7.17627 16.875 6.28857 16.875 5.23975V4.30225C16.875 4.04443 16.6641 3.8335 16.4062 3.8335H15.9375V2.42725C15.9375 2.16943 15.7266 1.9585 15.4688 1.9585C15.2109 1.9585 15 2.16943 15 2.42725V3.8335H14.0625V2.42725C14.0625 2.16943 13.8516 1.9585 13.5938 1.9585C13.3359 1.9585 13.125 2.16943 13.125 2.42725V3.8335H12.6562C12.3984 3.8335 12.1875 4.04443 12.1875 4.30225V5.23975C12.1875 6.28857 12.876 7.17627 13.8281 7.4751V11.0991C13.8281 11.4888 13.5146 11.8022 13.125 11.8022C12.7354 11.8022 12.4219 11.4888 12.4219 11.0991V10.1616C12.4219 8.73779 11.2676 7.5835 9.84375 7.5835H9.375V1.9585C9.375 0.924316 8.53418 0.0834961 7.5 0.0834961H2.8125ZM6.35449 2.50635C6.53027 2.62354 6.60352 2.84326 6.53906 3.04248L5.80664 5.23682H7.5C7.69629 5.23682 7.87207 5.35986 7.93945 5.5415C8.00684 5.72314 7.9541 5.93115 7.80469 6.06006L4.52344 8.87256C4.3623 9.01025 4.13086 9.02197 3.95801 8.90479C3.78516 8.7876 3.70898 8.56787 3.77344 8.36865L4.50586 6.17432H2.8125C2.61621 6.17432 2.44043 6.05127 2.37305 5.86963C2.30566 5.68799 2.3584 5.47998 2.50781 5.35107L5.78906 2.53857C5.9502 2.40088 6.18164 2.38916 6.35449 2.50635Z" fill="#014EC1"/>
</svg>
