<svg width="16" height="16" viewBox="0 0 16 16" fill="none" xmlns="http://www.w3.org/2000/svg">
<g clip-path="url(#clip0_198_325)">
<path d="M14.7974 0.109863L9.10498 2.29834L9.17236 1.43994C9.20166 1.06494 8.79736 0.810059 8.46924 0.997559L3.30127 3.9917C1.46436 5.05518 0.333496 7.01514 0.333496 9.13623C0.333496 12.4204 2.99658 15.0835 6.28076 15.0835C8.40186 15.0835 10.3647 13.9526 11.4282 12.1157L14.4194 6.94775C14.6099 6.62256 14.355 6.21533 13.9771 6.24463L13.1187 6.31201L15.3071 0.619629C15.3247 0.575684 15.3335 0.525879 15.3335 0.479004C15.3335 0.259277 15.1577 0.0834961 14.938 0.0834961C14.8882 0.0834961 14.8413 0.0922852 14.7974 0.109863ZM5.9585 5.7085C6.95306 5.7085 7.90689 6.10358 8.61015 6.80685C9.31341 7.51011 9.7085 8.46393 9.7085 9.4585C9.7085 10.4531 9.31341 11.4069 8.61015 12.1101C7.90689 12.8134 6.95306 13.2085 5.9585 13.2085C4.96393 13.2085 4.01011 12.8134 3.30685 12.1101C2.60358 11.4069 2.2085 10.4531 2.2085 9.4585C2.2085 8.46393 2.60358 7.51011 3.30685 6.80685C4.01011 6.10358 4.96393 5.7085 5.9585 5.7085ZM5.9585 8.521C5.9585 8.27236 5.85972 8.0339 5.68391 7.85808C5.50809 7.68227 5.26964 7.5835 5.021 7.5835C4.77236 7.5835 4.5339 7.68227 4.35808 7.85808C4.18227 8.0339 4.0835 8.27236 4.0835 8.521C4.0835 8.76964 4.18227 9.00809 4.35808 9.18391C4.5339 9.35972 4.77236 9.4585 5.021 9.4585C5.26964 9.4585 5.50809 9.35972 5.68391 9.18391C5.85972 9.00809 5.9585 8.76964 5.9585 8.521ZM6.42725 11.3335C6.55157 11.3335 6.67079 11.2841 6.7587 11.1962C6.84661 11.1083 6.896 10.9891 6.896 10.8647C6.896 10.7404 6.84661 10.6212 6.7587 10.5333C6.67079 10.4454 6.55157 10.396 6.42725 10.396C6.30293 10.396 6.1837 10.4454 6.09579 10.5333C6.00788 10.6212 5.9585 10.7404 5.9585 10.8647C5.9585 10.9891 6.00788 11.1083 6.09579 11.1962C6.1837 11.2841 6.30293 11.3335 6.42725 11.3335Z" fill="#014EC1"/>
</g>
<defs>
<clipPath id="clip0_198_325">
<rect width="15" height="15" fill="white" transform="translate(0.333496 0.0834961)"/>
</clipPath>
</defs>
</svg>
