<svg width="48" height="48" viewBox="0 0 48 48" fill="none" xmlns="http://www.w3.org/2000/svg">
<path d="M24 42C35.0457 42 44 33.0457 44 22C44 10.9543 35.0457 2 24 2C12.9543 2 4 10.9543 4 22C4 33.0457 12.9543 42 24 42Z" fill="#FFF59D"/>
<path d="M36.9999 22C36.9999 14.3 30.3999 8.2 22.4999 9.1C16.4999 9.8 11.6999 14.6 11.0999 20.6C10.5999 25.2 12.4999 29.3 15.6999 31.9C17.0999 33.1 17.9999 34.8 17.9999 36.7V37H29.9999V36.9C29.9999 35.1 30.7999 33.3 32.1999 32.1C35.0999 29.7 36.9999 26.1 36.9999 22Z" fill="#FBC02D"/>
<path d="M30.6001 20.1998L27.6001 18.1998C27.3001 17.9998 26.8001 17.9998 26.5001 18.1998L24.0001 19.7998L21.6001 18.1998C21.3001 17.9998 20.8001 17.9998 20.5001 18.1998L17.5001 20.1998C17.3001 20.3998 17.1001 20.5998 17.1001 20.8998C17.1001 21.1998 17.1001 21.4998 17.3001 21.6998L21.1001 26.3998V36.9998H23.1001V25.9998C23.1001 25.7998 23.0001 25.5998 22.9001 25.3998L19.6001 21.2998L21.1001 20.2998L23.5001 21.8998C23.8001 22.0998 24.3001 22.0998 24.6001 21.8998L27.0001 20.2998L28.5001 21.2998L25.2001 25.3998C25.1001 25.5998 25.0001 25.7998 25.0001 25.9998V36.9998H27.0001V26.3998L30.8001 21.6998C31.0001 21.4998 31.1001 21.1998 31.0001 20.8998C30.9001 20.5998 30.8001 20.2998 30.6001 20.1998Z" fill="#FFF59D"/>
<path d="M24 47C25.6569 47 27 45.6569 27 44C27 42.3431 25.6569 41 24 41C22.3431 41 21 42.3431 21 44C21 45.6569 22.3431 47 24 47Z" fill="#5C6BC0"/>
<path d="M26 45H22C19.8 45 18 43.2 18 41V36H30V41C30 43.2 28.2 45 26 45Z" fill="#9FA8DA"/>
<path d="M30 41L18.4 42.6C18.7 43.3 19.3 44 20 44.4L29.4 43.1C29.8 42.5 30 41.8 30 41ZM18 38.7V40.7L30 39V37L18 38.7Z" fill="#5C6BC0"/>
</svg>
