<svg width="50" height="50" viewBox="0 0 50 50" fill="none" xmlns="http://www.w3.org/2000/svg">
<circle cx="25" cy="25" r="24" fill="#DDDEE3" stroke="#014EC1" stroke-width="2"/>
<path d="M26.4531 12.2656V12.8193C26.7906 12.8826 27.1176 12.9617 27.4129 13.0408C28.0879 13.2201 28.4887 13.9162 28.3094 14.5912C28.1301 15.2662 27.434 15.667 26.759 15.4877C26.1842 15.3348 25.6463 15.2293 25.1664 15.224C24.7814 15.2188 24.3912 15.3137 24.1434 15.4561C24.0326 15.5246 23.9799 15.5826 23.9588 15.6143C23.943 15.6406 23.9219 15.6775 23.9219 15.7619C23.9219 15.7777 23.9219 15.7883 23.9219 15.7936C23.9324 15.8041 23.9693 15.8568 24.0959 15.9307C24.4018 16.1152 24.8553 16.2576 25.5408 16.4633L25.5883 16.4791C26.1736 16.6531 26.9541 16.8904 27.5869 17.2859C28.3094 17.7395 28.9633 18.4936 28.9791 19.6537C28.9949 20.8402 28.3779 21.7051 27.5711 22.2113C27.2178 22.4275 26.8381 22.5805 26.4479 22.6754V23.2344C26.4479 23.9357 25.8836 24.5 25.1822 24.5C24.4809 24.5 23.9166 23.9357 23.9166 23.2344V22.6332C23.4156 22.5119 22.9568 22.3537 22.5666 22.2219C22.4559 22.185 22.3504 22.148 22.2502 22.1164C21.5857 21.8949 21.2271 21.1777 21.4486 20.5133C21.6701 19.8488 22.3873 19.4902 23.0518 19.7117C23.1889 19.7592 23.3154 19.8014 23.4367 19.8436C24.1539 20.0861 24.6707 20.2602 25.2244 20.2812C25.6463 20.2971 26.0207 20.1969 26.2369 20.065C26.3371 20.0018 26.3846 19.949 26.4057 19.9121C26.4268 19.8805 26.4531 19.8172 26.4479 19.6959V19.6854C26.4479 19.6326 26.4479 19.5746 26.2369 19.4428C25.9363 19.2529 25.4828 19.1053 24.8078 18.8996L24.7076 18.868C24.1381 18.6992 23.3893 18.4725 22.7881 18.1086C22.0762 17.6814 21.3906 16.9484 21.3854 15.783C21.3801 14.5754 22.0656 13.7475 22.8461 13.2834C23.1836 13.083 23.5475 12.9459 23.9113 12.851V12.2656C23.9113 11.5643 24.4756 11 25.177 11C25.8783 11 26.4426 11.5643 26.4426 12.2656H26.4531ZM39.9637 28.7346C40.6545 29.6732 40.4541 30.9916 39.5154 31.6824L32.8393 36.6025C31.6053 37.5096 30.1182 38 28.5836 38H20.125H11.6875C10.7541 38 10 37.2459 10 36.3125V32.9375C10 32.0041 10.7541 31.25 11.6875 31.25H13.6281L15.9959 29.3516C17.193 28.3918 18.6801 27.875 20.2146 27.875H24.3438H25.1875H28.5625C29.4959 27.875 30.25 28.6291 30.25 29.5625C30.25 30.4959 29.4959 31.25 28.5625 31.25H25.1875H24.3438C23.8797 31.25 23.5 31.6297 23.5 32.0938C23.5 32.5578 23.8797 32.9375 24.3438 32.9375H30.7035L37.0158 28.2863C37.9545 27.5955 39.2729 27.7959 39.9637 28.7346ZM20.2094 31.25H20.1619C20.1777 31.25 20.1936 31.25 20.2094 31.25Z" fill="#014EC1"/>
</svg>
