<svg width="50" height="50" viewBox="0 0 50 50" fill="none" xmlns="http://www.w3.org/2000/svg">
<circle cx="25" cy="25" r="24" fill="#DDDEE3" stroke="#014EC1" stroke-width="2"/>
<path d="M16.9093 11.5801C17.1757 11.219 17.6019 11 18.0518 11H32.2592C32.7091 11 33.1353 11.2131 33.4017 11.5801L40.0319 20.5782C40.4344 21.1228 40.393 21.8746 39.9431 22.3778L26.2092 37.5323C25.9428 37.8283 25.5581 38 25.1555 38C24.753 38 24.3741 37.8283 24.1018 37.5323L10.368 22.3778C9.91215 21.8746 9.87663 21.1228 10.2792 20.5782L16.9093 11.5801ZM19.1884 13.9362C18.9931 14.0842 18.9398 14.3506 19.0641 14.5578L22.462 20.2171L13.7482 20.9452C13.5054 20.9629 13.316 21.1701 13.316 21.4188C13.316 21.6674 13.5054 21.8687 13.7482 21.8923L25.1141 22.8395C25.1378 22.8395 25.1674 22.8395 25.191 22.8395L36.557 21.8923C36.7997 21.8746 36.9891 21.6674 36.9891 21.4188C36.9891 21.1701 36.7997 20.9689 36.557 20.9452L27.849 20.223L31.2469 14.5637C31.3713 14.3565 31.318 14.0842 31.1226 13.9421C30.9273 13.8 30.655 13.8237 30.4892 14.0013L25.1555 19.7731L19.8218 13.9954C19.6561 13.8178 19.3838 13.7941 19.1884 13.9362Z" fill="#014EC1"/>
</svg>
