<svg width="50" height="50" viewBox="0 0 50 50" fill="none" xmlns="http://www.w3.org/2000/svg">
<circle cx="25" cy="25" r="24" fill="#DDDEE3" stroke="#014EC1" stroke-width="2"/>
<path d="M36.1293 18.9458C36.7885 18.2866 36.7885 17.2161 36.1293 16.5569L31.0668 11.4944C30.4076 10.8352 29.3371 10.8352 28.6779 11.4944C28.0187 12.1536 28.0187 13.2241 28.6779 13.8833L30.8611 16.0665H14.6875C13.7541 16.0665 13 16.8206 13 17.754C13 18.6874 13.7541 19.4415 14.6875 19.4415H30.8611L28.6779 21.6247C28.0187 22.2838 28.0187 23.3543 28.6779 24.0135C29.3371 24.6727 30.4076 24.6727 31.0668 24.0135L36.1293 18.951V18.9458ZM18.5529 37.5083C19.2121 38.1674 20.2826 38.1674 20.9418 37.5083C21.601 36.8491 21.601 35.7786 20.9418 35.1194L18.7639 32.9415H34.9375C35.8709 32.9415 36.625 32.1874 36.625 31.254C36.625 30.3206 35.8709 29.5665 34.9375 29.5665H18.7639L20.9471 27.3833C21.6062 26.7241 21.6062 25.6536 20.9471 24.9944C20.2879 24.3352 19.2174 24.3352 18.5582 24.9944L13.4957 30.0569C12.8365 30.7161 12.8365 31.7866 13.4957 32.4458L18.5582 37.5083H18.5529Z" fill="#014EC1"/>
</svg>
