<svg width="17" height="16" viewBox="0 0 17 16" fill="none" xmlns="http://www.w3.org/2000/svg">
<g clip-path="url(#clip0_198_317)">
<path d="M7.5 1.021H5.30859C4.51465 1.021 3.80566 1.52197 3.54199 2.26904L0.0908203 12.0132C0.0322266 12.1831 0 12.3647 0 12.5464C0 13.4282 0.717773 14.146 1.59961 14.146H7.5V12.271C7.5 11.7524 7.91895 11.3335 8.4375 11.3335C8.95605 11.3335 9.375 11.7524 9.375 12.271V14.146H15.2754C16.1602 14.146 16.875 13.4282 16.875 12.5464C16.875 12.3647 16.8428 12.1831 16.7842 12.0132L13.333 2.26904C13.0664 1.52197 12.3604 1.021 11.5664 1.021H9.375V2.896C9.375 3.41455 8.95605 3.8335 8.4375 3.8335C7.91895 3.8335 7.5 3.41455 7.5 2.896V1.021ZM9.375 6.646V8.521C9.375 9.03955 8.95605 9.4585 8.4375 9.4585C7.91895 9.4585 7.5 9.03955 7.5 8.521V6.646C7.5 6.12744 7.91895 5.7085 8.4375 5.7085C8.95605 5.7085 9.375 6.12744 9.375 6.646Z" fill="#014EC1"/>
</g>
<defs>
<clipPath id="clip0_198_317">
<rect width="16.875" height="15" fill="white" transform="translate(0 0.0834961)"/>
</clipPath>
</defs>
</svg>
