<svg width="25" height="27" viewBox="0 0 25 27" fill="none" xmlns="http://www.w3.org/2000/svg">
<path d="M23.8168 7.94575C24.476 7.28657 24.476 6.21606 23.8168 5.55688L18.7543 0.494385C18.0951 -0.164795 17.0246 -0.164795 16.3654 0.494385C15.7062 1.15356 15.7062 2.22407 16.3654 2.88325L18.5486 5.06645H2.375C1.4416 5.06645 0.6875 5.82056 0.6875 6.75395C0.6875 7.68735 1.4416 8.44145 2.375 8.44145H18.5486L16.3654 10.6247C15.7062 11.2838 15.7062 12.3543 16.3654 13.0135C17.0246 13.6727 18.0951 13.6727 18.7543 13.0135L23.8168 7.95103V7.94575ZM6.24043 26.5083C6.89961 27.1674 7.97012 27.1674 8.6293 26.5083C9.28848 25.8491 9.28848 24.7786 8.6293 24.1194L6.45137 21.9415H22.625C23.5584 21.9415 24.3125 21.1874 24.3125 20.254C24.3125 19.3206 23.5584 18.5665 22.625 18.5665H6.45137L8.63457 16.3833C9.29375 15.7241 9.29375 14.6536 8.63457 13.9944C7.97539 13.3352 6.90488 13.3352 6.2457 13.9944L1.1832 19.0569C0.524023 19.7161 0.524023 20.7866 1.1832 21.4458L6.2457 26.5083H6.24043Z" fill="#014EC1"/>
</svg>
