<svg width="50" height="50" viewBox="0 0 50 50" fill="none" xmlns="http://www.w3.org/2000/svg">
<circle cx="25" cy="25" r="24" fill="#DDDEE3" stroke="#014EC1" stroke-width="2"/>
<g clip-path="url(#clip0_45_8599)">
<path d="M10.4113 21.9529C9.72051 21.0143 9.9209 19.6959 10.8596 19.0051L17.5357 14.085C18.7645 13.1779 20.2568 12.6875 21.7861 12.6875H30.25H38.6875C39.6209 12.6875 40.375 13.4416 40.375 14.375V17.75C40.375 18.6834 39.6209 19.4375 38.6875 19.4375H36.7469L34.3791 21.3359C33.182 22.2957 31.6949 22.8125 30.1604 22.8125H26.0312H25.1875H21.8125C20.8791 22.8125 20.125 22.0584 20.125 21.125C20.125 20.1916 20.8791 19.4375 21.8125 19.4375H25.1875H26.0312C26.4953 19.4375 26.875 19.0578 26.875 18.5938C26.875 18.1297 26.4953 17.75 26.0312 17.75H19.6715L13.3592 22.4012C12.4205 23.092 11.1021 22.8916 10.4113 21.9529ZM30.1656 19.4375H30.2131C30.1973 19.4375 30.1814 19.4375 30.1656 19.4375ZM39.9637 27.0471C40.6545 27.9857 40.4541 29.3041 39.5154 29.9949L32.8393 34.915C31.6053 35.8221 30.1182 36.3125 28.5836 36.3125H20.125H11.6875C10.7541 36.3125 10 35.5584 10 34.625V31.25C10 30.3166 10.7541 29.5625 11.6875 29.5625H13.6281L15.9959 27.6641C17.193 26.7043 18.6801 26.1875 20.2146 26.1875H24.3438H25.1875H28.5625C29.4959 26.1875 30.25 26.9416 30.25 27.875C30.25 28.8084 29.4959 29.5625 28.5625 29.5625H25.1875H24.3438C23.8797 29.5625 23.5 29.9422 23.5 30.4062C23.5 30.8703 23.8797 31.25 24.3438 31.25H30.7035L37.0158 26.5988C37.9545 25.908 39.2729 26.1084 39.9637 27.0471ZM20.2094 29.5625H20.1619C20.1777 29.5625 20.1936 29.5625 20.2094 29.5625Z" fill="#014EC1"/>
</g>
<defs>
<clipPath id="clip0_45_8599">
<rect width="30.375" height="27" fill="white" transform="translate(10 11)"/>
</clipPath>
</defs>
</svg>
