<svg width="15" height="16" viewBox="0 0 15 16" fill="none" xmlns="http://www.w3.org/2000/svg">
<g clip-path="url(#clip0_199_327)">
<path d="M0.9375 1.9585C0.9375 0.924316 1.77832 0.0834961 2.8125 0.0834961H7.5C8.53418 0.0834961 9.375 0.924316 9.375 1.9585V7.5835H9.60938C11.0332 7.5835 12.1875 8.73779 12.1875 10.1616V11.0991C12.1875 11.4888 12.501 11.8022 12.8906 11.8022C13.2803 11.8022 13.5938 11.4888 13.5938 11.0991V6.5874C12.7852 6.37939 12.1875 5.64404 12.1875 4.771V2.896L11.25 1.9585C10.9922 1.70068 10.9922 1.27881 11.25 1.021C11.5078 0.763184 11.9297 0.763184 12.1875 1.021L14.4521 3.28564C14.8037 3.63721 15 4.11475 15 4.61279V5.00537V5.7085V6.646V11.0991C15 12.2651 14.0566 13.2085 12.8906 13.2085C11.7246 13.2085 10.7812 12.2651 10.7812 11.0991V10.1616C10.7812 9.51416 10.2568 8.98975 9.60938 8.98975H9.375V13.2085C9.89355 13.2085 10.3125 13.6274 10.3125 14.146C10.3125 14.6646 9.89355 15.0835 9.375 15.0835H0.9375C0.418945 15.0835 0 14.6646 0 14.146C0 13.6274 0.418945 13.2085 0.9375 13.2085V1.9585ZM2.8125 2.42725V5.23975C2.8125 5.49756 3.02344 5.7085 3.28125 5.7085H7.03125C7.28906 5.7085 7.5 5.49756 7.5 5.23975V2.42725C7.5 2.16943 7.28906 1.9585 7.03125 1.9585H3.28125C3.02344 1.9585 2.8125 2.16943 2.8125 2.42725Z" fill="#014EC1"/>
</g>
<defs>
<clipPath id="clip0_199_327">
<rect width="15" height="15" fill="white" transform="translate(0 0.0834961)"/>
</clipPath>
</defs>
</svg>
